{"title":"EverythingButt - Bonnie Rotten &amp; Veronica Avluv","uid":10838315,"size":761615183,"categoryP":"porn","categoryS":"movie_clips","magnet":"?xt=urn:btih:adf8bf6a0586353eb815e5f71abb9f0533093dea&amp;dn=EverythingButt+-+Bonnie+Rotten+%26amp%3B+Veronica+Avluv&amp;tr=udp%3A%2F%2Ftracker.openbittorrent.com%3A80&amp;tr=udp%3A%2F%2Fopen.demonii.com%3A1337&amp;tr=udp%3A%2F%2Ftracker.coppersurfer.tk%3A6969&amp;tr=udp%3A%2F%2Fexodus.desync.com%3A6969","seeders":2,"leechers":0,"uploader":"ThousandPeers","files":-1,"time":1408719060,"description":"Format                                   : MPEG-4\nCodec ID                                 : M4V \nFile size                                : 726 MiB\nDuration                                 : 1h 6mn\nOverall bit rate mode                    : Variable\nOverall bit rate                         : 1 532 Kbps\nEncoded date                             : UTC 2014-08-04 23:22:51\nTagged date                              : UTC 2014-08-04 23:22:51\n\nVideo\nID                                       : 1\nFormat                                   : AVC\nFormat/Info                              : Advanced Video Codec\nFormat profile                           : &lt;a class=&quot;__cf_email__&quot; href=&quot;/cdn-cgi/l/email-protection&quot; data-cfemail=&quot;3f7d5e4c5a5356515a7f730c110d&quot;&gt;[email&amp;#160;protected]&lt;/a&gt;&lt;script cf-hash='f9e31' type=&quot;text/javascript&quot;&gt;\n/* &lt;![CDATA[ */!function(){try{var t=&quot;currentScript&quot;in document?document.currentScript:function(){for(var t=document.getElementsByTagName(&quot;script&quot;),e=t.length;e--;)if(t[e].getAttribute(&quot;cf-hash&quot;))return t[e]}();if(t&amp;&amp;t.previousSibling){var e,r,n,i,c=t.previousSibling,a=c.getAttribute(&quot;data-cfemail&quot;);if(a){for(e=&quot;&quot;,r=parseInt(a.substr(0,2),16),n=2;a.length-n;n+=2)i=parseInt(a.substr(n,2),16)^r,e+=String.fromCharCode(i);e=document.createTextNode(e),c.parentNode.replaceChild(e,c)}}}catch(u){}}();/* ]]&gt; */&lt;/script&gt;\nFormat settings, CABAC                   : No\nFormat settings, ReFrames                : 2 frames\nCodec ID                                 : avc1\nCodec ID/Info                            : Advanced Video Coding\nDuration                                 : 1h 6mn\nBit rate mode                            : Constant\nBit rate                                 : 1 400 Kbps\nMaximum bit rate                         : 2 761 Kbps\nWidth                                    : 960 pixels\nHeight                                   : 540 pixels\nDisplay aspect ratio                     : 16:9\nFrame rate mode                          : Constant\nFrame rate                               : 29.970 fps\nColor space                              : YUV\nChroma subsampling                       : 4:2:0\nBit depth                                : 8 bits\nScan type                                : Progressive\nBits/(Pixel*Frame)                       : 0.090\nStream size                              : 663 MiB (91%)\nEncoded date                             : UTC 2014-08-04 23:22:51\nTagged date                              : UTC 2014-08-04 23:22:51\n\nAudio\nID                                       : 2\nFormat                                   : AAC\nFormat/Info                              : Advanced Audio Codec\nFormat profile                           : LC\nCodec ID                                 : 40\nDuration                                 : 1h 6mn\nBit rate mode                            : Variable\nBit rate                                 : 128 Kbps\nMaximum bit rate                         : 138 Kbps\nChannel(s)                               : 2 channels\nChannel positions                        : Front: L R\nSampling rate                            : 44.1 KHz\nCompression mode                         : Lossy\nStream size                              : 59.5 MiB (8%)","torrent":{"xt":"urn:btih:adf8bf6a0586353eb815e5f71abb9f0533093dea","amp;dn":"EverythingButt+-+Bonnie+Rotten+%26amp%3B+Veronica+Avluv","amp;tr":["udp%3A%2F%2Ftracker.openbittorrent.com%3A80","udp%3A%2F%2Fopen.demonii.com%3A1337","udp%3A%2F%2Ftracker.coppersurfer.tk%3A6969","udp%3A%2F%2Fexodus.desync.com%3A6969"],"infoHash":"adf8bf6a0586353eb815e5f71abb9f0533093dea","infoHashBuffer":{"type":"Buffer","data":[173,248,191,106,5,134,53,62,184,21,229,247,26,187,159,5,51,9,61,234]},"announce":[],"urlList":[]}}